<svg width="29" height="29" viewBox="0 0 29 29" fill="none" xmlns="http://www.w3.org/2000/svg">
<g clip-path="url(#clip0_80_4421)">
<path d="M6.60243 5.3559C8.79502 3.45599 11.6001 2.41198 14.5013 2.41603C21.1749 2.41603 26.5846 7.82574 26.5846 14.4994C26.5846 17.0804 25.7751 19.4729 24.3976 21.4352L20.543 14.4994H24.168C24.1681 12.6042 23.6112 10.7509 22.5665 9.16971C21.5218 7.58855 20.0354 6.34934 18.2921 5.60618C16.5487 4.86301 14.6254 4.64867 12.7612 4.9898C10.8971 5.33093 9.17431 6.21249 7.80714 7.52486L6.60243 5.3559ZM22.4002 23.6428C20.2076 25.5427 17.4025 26.5867 14.5013 26.5827C7.82768 26.5827 2.41797 21.173 2.41797 14.4994C2.41797 11.9184 3.22755 9.52586 4.60505 7.56353L8.45963 14.4994H4.83464C4.83448 16.3945 5.39138 18.2478 6.43608 19.829C7.48079 21.4102 8.96722 22.6494 10.7105 23.3925C12.4539 24.1357 14.3772 24.3501 16.2414 24.0089C18.1055 23.6678 19.8283 22.7862 21.1955 21.4739L22.4002 23.6428Z" fill="#008280"/>
</g>
<defs>
<clipPath id="clip0_80_4421">
<rect width="29" height="29" fill="white"/>
</clipPath>
</defs>
</svg>
