<svg width="26" height="26" viewBox="0 0 26 26" fill="none" xmlns="http://www.w3.org/2000/svg">
<path d="M13.7646 7.64706C13.7646 7.24143 13.6034 6.85242 13.3166 6.5656C13.0298 6.27878 12.6408 6.11765 12.2352 6.11765C11.8295 6.11765 11.4405 6.27878 11.1537 6.5656C10.8669 6.85242 10.7058 7.24143 10.7058 7.64706V13.7647C10.7058 14.1703 10.8669 14.5593 11.1537 14.8462C11.4405 15.133 11.8295 15.2941 12.2352 15.2941H18.3527C18.7584 15.2941 19.1474 15.133 19.4342 14.8462C19.721 14.5593 19.8821 14.1703 19.8821 13.7647C19.8821 13.3591 19.721 12.9701 19.4342 12.6832C19.1474 12.3964 18.7584 12.2353 18.3527 12.2353H13.7646V7.64706ZM22.3292 3.97647C22.0442 3.69725 21.6607 3.54176 21.2617 3.54377C20.8628 3.54579 20.4808 3.70515 20.1988 3.98723C19.9167 4.26931 19.7573 4.65131 19.7553 5.05023C19.7533 5.44914 19.9088 5.83273 20.188 6.11765C21.089 7.02245 21.8026 8.09607 22.2881 9.27703C22.7736 10.458 23.0214 11.7231 23.0174 13C23.02 14.3062 22.7647 15.6001 22.266 16.8074C21.7673 18.0147 21.0352 19.1117 20.1116 20.0353C19.1879 20.959 18.091 21.6911 16.8837 22.1898C15.6764 22.6884 14.3825 22.9438 13.0763 22.9412C7.57051 22.9412 3.05879 18.5059 3.05879 13C3.05617 11.6938 3.31152 10.3999 3.81017 9.19258C4.30883 7.98528 5.04098 6.88833 5.96462 5.96468C6.88825 5.04104 7.98519 4.30888 9.19248 3.81021C10.3998 3.31155 11.6936 3.0562 12.9999 3.05882C13.4055 3.05882 13.7945 2.89769 14.0813 2.61087C14.3681 2.32405 14.5292 1.93504 14.5292 1.52941C14.5292 1.12379 14.3681 0.734775 14.0813 0.447954C13.7945 0.161134 13.4055 0 12.9999 0C10.4287 0 7.91534 0.762437 5.77752 2.19089C3.63971 3.61935 1.97349 5.64968 0.98956 8.02511C0.0056326 10.4006 -0.251808 13.0144 0.249794 15.5362C0.751396 18.0579 1.98951 20.3743 3.80757 22.1924C5.62563 24.0105 7.94198 25.2486 10.4637 25.7502C12.9854 26.2518 15.5993 25.9944 17.9747 25.0104C20.3501 24.0265 22.3804 22.3602 23.8088 20.2224C25.2373 18.0846 25.9997 15.5712 25.9997 13C26.0112 11.3285 25.6929 9.67107 25.063 8.12269C24.4332 6.57432 23.5042 5.16536 22.3292 3.97647Z" fill="#FFC2C2"/>
</svg>
