<svg width="32" height="22" viewBox="0 0 32 22" fill="none" xmlns="http://www.w3.org/2000/svg">
<path d="M24.4348 2H25.9348C25.9348 1.17157 25.2632 0.5 24.4348 0.5V2ZM18.0249 19.1818L18.707 20.5178C18.9096 20.4143 19.0861 20.2661 19.223 20.0843L18.0249 19.1818ZM8.40995 19.1818L7.21185 20.0843C7.34875 20.2661 7.52521 20.4143 7.72785 20.5178L8.40995 19.1818ZM2 2V0.5C1.17157 0.5 0.5 1.17157 0.5 2L2 2ZM22.7582 5.65815C22.5192 6.45135 22.9685 7.28812 23.7617 7.52712C24.5549 7.76613 25.3917 7.31687 25.6307 6.52367L22.7582 5.65815ZM28.1205 4.53636L28.5809 3.10875L28.5366 3.09448L28.4916 3.08298L28.1205 4.53636ZM29.8833 8.79091L31.3507 9.10163L31.3553 9.08016L31.3592 9.05857L29.8833 8.79091ZM21.2039 12.5275C20.3756 12.5418 19.7157 13.2249 19.7301 14.0532C19.7444 14.8815 20.4275 15.5414 21.2558 15.527L21.2039 12.5275ZM22.9348 2V3.63636H25.9348V2H22.9348ZM22.9348 3.63636C22.9348 6.77078 21.4822 10.385 19.9061 13.3422C19.1324 14.794 18.3572 16.036 17.7757 16.9143C17.4854 17.3527 17.2446 17.6988 17.078 17.933C16.9947 18.0501 16.93 18.1391 16.8871 18.1977C16.8657 18.2269 16.8496 18.2486 16.8394 18.2623C16.8344 18.2691 16.8307 18.274 16.8286 18.2769C16.8275 18.2783 16.8268 18.2792 16.8265 18.2796C16.8264 18.2798 16.8263 18.2799 16.8264 18.2798C16.8264 18.2798 16.8265 18.2797 16.8265 18.2797C16.8266 18.2795 16.8268 18.2793 18.0249 19.1818C19.223 20.0843 19.2232 20.0841 19.2234 20.0838C19.2235 20.0836 19.2237 20.0833 19.224 20.083C19.2244 20.0825 19.2249 20.0818 19.2255 20.0809C19.2268 20.0793 19.2284 20.0771 19.2304 20.0744C19.2345 20.069 19.24 20.0616 19.2471 20.0521C19.2611 20.0332 19.2811 20.0062 19.3066 19.9714C19.3576 19.9019 19.4306 19.8012 19.5226 19.6719C19.7065 19.4133 19.9665 19.0396 20.2772 18.5704C20.8975 17.6333 21.7248 16.3083 22.5536 14.7532C24.1825 11.6968 25.9348 7.53831 25.9348 3.63636H22.9348ZM18.0249 19.1818C17.3428 17.8459 17.3433 17.8456 17.3438 17.8453C17.344 17.8453 17.3445 17.845 17.3448 17.8448C17.3455 17.8445 17.3461 17.8442 17.3467 17.8439C17.3479 17.8432 17.3491 17.8427 17.3501 17.8422C17.3522 17.8411 17.3538 17.8403 17.3552 17.8396C17.3578 17.8383 17.3589 17.8378 17.3585 17.838C17.3577 17.8384 17.3508 17.8417 17.3379 17.8474C17.3121 17.8589 17.2622 17.8805 17.188 17.9088C17.0397 17.9656 16.7944 18.0501 16.452 18.1375C15.7681 18.3121 14.6908 18.5 13.2174 18.5V21.5C14.949 21.5 16.2754 21.2788 17.194 21.0443C17.6528 20.9272 18.0085 20.8071 18.2608 20.7105C18.387 20.6622 18.4872 20.6197 18.5616 20.5865C18.5988 20.5699 18.6295 20.5556 18.6537 20.544C18.6658 20.5382 18.6763 20.5331 18.6852 20.5287C18.6896 20.5265 18.6937 20.5245 18.6973 20.5227C18.6991 20.5217 18.7008 20.5209 18.7024 20.5201C18.7032 20.5197 18.704 20.5193 18.7048 20.5189C18.7052 20.5187 18.7057 20.5184 18.7059 20.5183C18.7064 20.518 18.707 20.5178 18.0249 19.1818ZM13.2174 18.5C11.744 18.5 10.6667 18.3121 9.98284 18.1375C9.64037 18.0501 9.39508 17.9656 9.24682 17.9088C9.17266 17.8805 9.12269 17.8589 9.09691 17.8474C9.08401 17.8417 9.07716 17.8384 9.07635 17.838C9.07594 17.8378 9.07705 17.8383 9.07967 17.8396C9.08097 17.8403 9.08266 17.8411 9.08472 17.8422C9.08575 17.8427 9.08688 17.8432 9.0881 17.8439C9.08871 17.8442 9.08934 17.8445 9.09 17.8448C9.09033 17.845 9.09084 17.8453 9.091 17.8453C9.09152 17.8456 9.09204 17.8459 8.40995 19.1818C7.72785 20.5178 7.72839 20.518 7.72893 20.5183C7.72912 20.5184 7.72966 20.5187 7.73004 20.5189C7.7308 20.5193 7.73158 20.5197 7.73238 20.5201C7.73399 20.5209 7.73571 20.5217 7.73752 20.5227C7.74115 20.5245 7.74518 20.5265 7.74962 20.5287C7.75849 20.5331 7.76899 20.5382 7.7811 20.544C7.80533 20.5556 7.83604 20.5699 7.87322 20.5865C7.94759 20.6197 8.04785 20.6622 8.174 20.7105C8.42637 20.8071 8.78201 20.9272 9.24078 21.0443C10.1594 21.2788 11.4858 21.5 13.2174 21.5V18.5ZM8.40995 19.1818C9.60804 18.2793 9.60819 18.2795 9.60832 18.2797C9.60833 18.2797 9.60843 18.2798 9.60845 18.2798C9.60849 18.2799 9.60844 18.2798 9.60828 18.2796C9.60798 18.2792 9.60729 18.2783 9.60623 18.2769C9.6041 18.274 9.60046 18.2691 9.59537 18.2623C9.58518 18.2486 9.56916 18.2269 9.5477 18.1977C9.50478 18.1391 9.44013 18.0501 9.35685 17.933C9.19022 17.6988 8.94941 17.3527 8.65912 16.9143C8.07764 16.036 7.30244 14.794 6.52871 13.3422C4.95266 10.385 3.5 6.77078 3.5 3.63636H0.5C0.5 7.53831 2.25232 11.6968 3.88123 14.7532C4.70999 16.3083 5.53728 17.6333 6.15767 18.5704C6.46831 19.0396 6.72827 19.4133 6.91219 19.6719C7.00418 19.8012 7.07724 19.9019 7.12822 19.9714C7.15371 20.0062 7.17368 20.0332 7.18775 20.0521C7.19479 20.0616 7.20034 20.069 7.20438 20.0744C7.20639 20.0771 7.20803 20.0793 7.20928 20.0809C7.2099 20.0818 7.21043 20.0825 7.21086 20.083C7.21107 20.0833 7.21132 20.0836 7.21143 20.0838C7.21165 20.0841 7.21185 20.0843 8.40995 19.1818ZM3.5 3.63636V2H0.5V3.63636H3.5ZM2 3.5H24.4348V0.5H2V3.5ZM25.6307 6.52367C25.6284 6.53123 25.732 6.29758 26.1746 6.09743C26.5729 5.91732 27.1259 5.83055 27.7495 5.98975L28.4916 3.08298C27.1922 2.75127 25.9424 2.90996 24.9385 3.36394C23.9789 3.79788 23.081 4.58695 22.7582 5.65815L25.6307 6.52367ZM27.6602 5.96397C27.9937 6.07151 28.2013 6.26483 28.337 6.59284C28.4928 6.96945 28.5752 7.5974 28.4073 8.52325L31.3592 9.05857C31.5919 7.77533 31.5541 6.52145 31.109 5.4458C30.6438 4.32153 29.7698 3.49213 28.5809 3.10875L27.6602 5.96397ZM28.4158 8.48019C27.9857 10.5114 25.6117 12.4512 21.2039 12.5275L21.2558 15.527C26.3027 15.4397 30.4988 13.1249 31.3507 9.10163L28.4158 8.48019Z" fill="#FFC2C2"/>
</svg>
