<svg width="21" height="29" viewBox="0 0 21 29" fill="none" xmlns="http://www.w3.org/2000/svg">
<path d="M3 18.85C3 20.7728 3.79018 22.6169 5.1967 23.9765C6.60322 25.3362 8.51088 26.1 10.5 26.1C12.4891 26.1 14.3968 25.3362 15.8033 23.9765C17.2098 22.6169 18 20.7728 18 18.85C18 16.3473 15.51 11.555 10.5 4.85315C5.49 11.555 3 16.3473 3 18.85ZM10.5 0C17.5005 8.8305 21 15.1133 21 18.85C21 21.5419 19.8938 24.1236 17.9246 26.0271C15.9555 27.9306 13.2848 29 10.5 29C7.71523 29 5.04451 27.9306 3.07538 26.0271C1.10625 24.1236 0 21.5419 0 18.85C0 15.1133 3.4995 8.8305 10.5 0Z" fill="#FFC2C2"/>
</svg>
