<svg width="54" height="54" viewBox="0 0 54 54" fill="none" xmlns="http://www.w3.org/2000/svg">
<path d="M1 28.6322C1 27.5757 1 26.5327 1 25.4897C1.02708 25.3949 1.0677 25.3001 1.08124 25.1917C1.25726 22.5504 1.85302 20.0175 2.80082 17.5522C2.86852 17.3626 2.85498 17.1323 2.88206 16.9291C3.13932 16.6176 3.34242 16.2654 3.51844 15.9133C7.47212 7.93514 13.8359 3.09951 22.5692 1.40636C23.6253 1.20318 24.7085 1.12191 25.7782 1C26.6989 1 27.6061 1 28.5133 1C28.6622 1.02709 28.8112 1.08127 28.9466 1.09482C30.9099 1.21672 32.8325 1.59599 34.7146 2.17843C47.6318 6.2149 55.2954 19.4215 52.3843 32.6145C50.0554 43.1797 41.444 51.1579 30.6797 52.7291C29.9621 52.8375 29.2444 52.9187 28.5268 53C27.5113 53 26.4958 53 25.4803 53C25.372 52.9729 25.2637 52.9323 25.1418 52.9187C23.9232 52.7426 22.6911 52.6343 21.486 52.3905C11.2633 50.2774 3.17994 41.8659 1.4062 31.5309C1.24372 30.5692 1.1354 29.5939 1 28.6322ZM3.81632 20.0039C0.58026 30.1628 4.68288 43.0578 16.3679 48.801C27.2947 54.1784 39.9546 50.3722 46.3861 41.5001C45.9122 41.0396 45.4383 40.552 44.9238 40.1185C44.4634 39.7122 44.2874 39.2516 44.3145 38.6421C44.3551 37.87 44.3415 37.0844 44.3145 36.3123C44.3009 36.055 44.2468 35.7705 44.1384 35.5402C43.475 34.1722 42.8521 32.777 42.0804 31.4631C41.119 29.8377 40.6316 28.1446 40.8347 26.2482C40.8618 26.0451 40.7805 25.7064 40.6451 25.6252C39.9952 25.273 39.5348 24.5822 38.7089 24.5415C38.6006 24.5415 38.4787 24.5957 38.3704 24.6228C37.5851 24.8125 36.7998 25.0292 36.0009 25.1917C35.7572 25.2459 35.4458 25.2459 35.2156 25.1511C33.2387 24.3248 31.2619 23.485 29.2986 22.6046C29.0413 22.4962 28.7705 22.1576 28.7299 21.9002C28.4185 19.9497 28.1612 17.9857 27.8769 16.0216C27.8227 15.6017 27.9311 15.2631 28.2425 14.9651C29.0278 14.193 29.786 13.3939 30.5984 12.6489C30.8286 12.4457 31.1942 12.2831 31.4921 12.2831C33.1169 12.2425 34.7417 12.2696 36.3665 12.2561C36.7727 12.2561 37.0841 12.4051 37.3007 12.7437C37.6934 13.3532 38.0861 13.9763 38.5193 14.5452C38.6683 14.7484 38.9391 14.9245 39.1963 14.9786C39.914 15.1412 40.6722 15.1954 41.3898 15.3715C42.6761 15.683 43.9083 15.683 45.1269 15.1141C45.7903 14.8026 46.535 14.6265 47.2391 14.3962C47.361 14.3556 47.4693 14.3014 47.6588 14.2201C46.7787 13.0417 45.9257 11.9174 45.0727 10.7661C44.4228 11.1995 43.8541 11.6059 43.2583 11.9581C43.0011 12.1071 42.6355 12.2561 42.3647 12.2019C40.266 11.782 38.1267 11.484 36.1092 10.7254C35.8113 10.6171 35.4051 10.6035 35.0937 10.6848C32.1149 11.4163 32.1285 11.4298 29.5288 10.5223C29.5152 10.5223 29.5017 10.5087 29.4746 10.5087C28.7705 10.2514 28.5674 9.79083 28.8924 9.11357C29.4205 8.02996 29.9621 6.95989 30.4901 5.88981C30.6932 5.48346 31.0046 5.29383 31.465 5.30737C32.2368 5.32092 33.0221 5.25319 33.7939 5.32092C34.674 5.40219 35.3104 4.88747 36.1634 4.50821C30.6255 2.34097 25.1689 2.1378 19.631 3.95285C20.0372 4.21021 20.457 4.45402 20.9038 4.5353C22.2984 4.8062 23.7066 5.00938 25.1012 5.23965C26.0355 5.40219 26.2792 5.82209 25.9948 6.70253C25.7647 7.40688 25.5074 8.11123 25.2908 8.81558C25.1554 9.24902 24.8981 9.50638 24.4784 9.64183C23.8961 9.83147 23.3139 9.99401 22.7452 10.2243C22.5286 10.3055 22.312 10.4816 22.1901 10.6848C21.486 11.8226 20.8226 12.974 20.1049 14.1117C19.9154 14.4097 19.631 14.6942 19.3332 14.8838C18.1552 15.6288 16.9772 16.3467 15.7721 17.024C15.3524 17.2542 14.8785 17.4168 14.4046 17.498C12.9558 17.7419 11.4935 17.9315 10.0312 18.1211C9.76038 18.1618 9.67914 18.2701 9.65206 18.541C9.5979 19.2725 9.67914 19.8955 10.3426 20.3561C11.1685 20.9385 11.5747 21.7241 11.3987 22.7536C11.3852 22.8349 11.4123 22.9161 11.4258 22.9839C11.4664 23.0109 11.507 23.038 11.5477 23.0787C11.832 22.7671 12.0893 22.442 12.3871 22.1576C13.01 21.5481 13.6057 21.6564 14.0119 22.4285C14.3911 23.1464 14.7837 23.8643 15.0951 24.6093C15.3118 25.1104 15.5961 25.2459 16.1242 25.2324C17.6407 25.1917 19.1707 25.2324 20.6872 25.2053C21.2017 25.1917 21.5402 25.3949 21.7974 25.8283C22.4609 26.9661 23.1379 28.1039 23.842 29.2146C23.9368 29.3772 24.194 29.5126 24.3971 29.5262C25.2095 29.5668 26.0219 29.5397 26.8343 29.5397C27.5926 29.5533 27.9311 29.919 27.8092 30.6775C27.7009 31.3954 27.4707 32.0998 27.403 32.8177C27.2541 34.4431 26.6448 35.7976 25.3043 36.7864C25.1824 36.8812 25.1012 37.0167 24.9793 37.0979C23.7878 37.9513 23.2733 39.062 23.5306 40.5249C23.6118 40.999 23.3681 41.3647 22.9754 41.6491C22.1224 42.2722 21.2965 42.9088 20.457 43.5319C20.1862 43.7351 20.0643 43.9383 20.0643 44.2769C20.0914 45.3063 20.0779 46.3358 20.0779 47.3787C20.0779 48.4488 19.604 48.7739 18.5749 48.4353C17.9115 48.2185 17.2615 47.9747 16.6116 47.7716C16.1513 47.6361 15.8669 47.3652 15.6909 46.9182C15.2035 45.6585 14.6754 44.4123 14.2015 43.1526C14.0796 42.8411 14.0119 42.5025 14.0119 42.1638C13.9984 40.3623 13.9984 38.4796 13.9984 36.6103C13.9984 35.9737 13.9984 35.3235 13.9984 34.6598C12.8881 34.4431 11.8185 34.2128 10.7488 34.0232C10.2072 33.9284 9.82808 33.671 9.5979 33.1563C9.20524 32.3165 8.81258 31.4631 8.35222 30.664C7.67522 29.4991 7.98664 28.2529 7.95956 27.0339C7.94602 26.316 8.67718 26.018 9.06984 25.5168C9.09692 25.4897 9.11046 25.4626 9.13754 25.4084C9.00214 25.3136 8.88028 25.2053 8.73134 25.1104C7.55336 24.3248 6.37538 23.5257 5.18386 22.7536C4.77766 22.4962 4.5204 22.1576 4.385 21.6971C4.22252 21.1417 4.01942 20.6134 3.81632 20.0039ZM48.4712 15.8455C47.0089 16.3332 45.5466 16.8343 44.0707 17.3084C43.7593 17.4032 43.4073 17.4574 43.0823 17.4168C41.5117 17.1865 39.9546 16.9021 38.3839 16.6447C37.9507 16.577 37.6392 16.3738 37.3955 16.0081C37.0299 15.4392 36.6644 14.8703 36.2582 14.3285C36.1363 14.1659 35.8926 14.044 35.703 14.0169C35.1885 13.9763 34.6604 14.0034 34.1324 14.0034C33.32 14.0034 32.4128 13.8002 31.7223 14.0847C31.0182 14.3827 30.5172 15.1818 29.9214 15.7643C29.9079 15.7778 29.8944 15.7914 29.8808 15.8049C29.8131 15.9945 29.6777 16.1977 29.7048 16.3738C29.8944 17.8367 30.1245 19.286 30.3006 20.7489C30.3412 21.1146 30.5037 21.2636 30.8151 21.3991C32.3045 22.0221 33.7939 22.6859 35.2968 23.2954C35.5541 23.4038 35.8926 23.4173 36.1634 23.3631C36.9758 23.2006 37.7746 22.9839 38.5735 22.7671C39.0474 22.6452 39.4536 22.6859 39.8733 22.9839C40.5639 23.4715 41.268 23.9456 41.9856 24.3925C42.4459 24.677 42.622 25.0563 42.6084 25.571C42.5949 26.4108 42.5813 27.2641 42.6084 28.1039C42.622 28.3748 42.6761 28.6728 42.798 28.9166C43.7729 30.9078 44.7884 32.8718 45.7497 34.863C45.9393 35.2423 46.0205 35.6892 46.0476 36.1227C46.0882 36.8812 46.0476 37.6398 46.0611 38.4118C46.0611 38.5879 46.1017 38.7911 46.2101 38.913C46.5486 39.3194 46.9412 39.6986 47.3203 40.105C52.1406 33.0208 52.4926 23.1464 48.4712 15.8455ZM25.9407 31.3548C25.4126 31.3548 24.9523 31.3006 24.5054 31.3683C23.4493 31.5038 22.7588 31.1245 22.2849 30.1357C21.8381 29.1875 21.2152 28.3342 20.7007 27.4267C20.5111 27.1016 20.308 27.0068 19.9425 27.0068C18.3854 27.0339 16.8283 26.9932 15.2712 27.0339C14.5806 27.0474 14.1609 26.7901 13.8901 26.167C13.5922 25.4897 13.2402 24.8531 12.8881 24.1487C11.8185 25.2188 10.8165 26.2212 9.82808 27.237C9.71976 27.3454 9.67914 27.5621 9.6656 27.7382C9.54374 28.8218 9.7333 29.8513 10.3426 30.7859C10.5863 31.1516 10.7082 31.585 10.9519 31.9508C11.0873 32.1404 11.3175 32.3436 11.5477 32.3978C12.6309 32.6551 13.7276 32.8448 14.8243 33.075C15.5284 33.224 15.7315 33.4814 15.7315 34.1993C15.7315 35.8247 15.8263 37.4501 15.7044 39.0755C15.542 41.3918 15.9888 43.5455 16.9637 45.645C17.2751 46.2951 17.6813 46.4848 18.3312 46.5796C18.3312 45.6179 18.3447 44.6833 18.3312 43.7622C18.3177 43.2746 18.5072 42.9224 18.8999 42.6515C19.4821 42.2451 19.9966 41.7304 20.6195 41.3918C21.5808 40.85 22.0276 40.1185 21.811 39.0078C21.7839 38.8724 21.8245 38.7369 21.811 38.6015C21.7704 38.1409 21.9599 37.8023 22.2849 37.4772C23.2191 36.5697 24.1263 35.6351 25.047 34.714C25.1554 34.6056 25.3043 34.4973 25.3314 34.3754C25.5345 33.3595 25.724 32.3842 25.9407 31.3548ZM9.54374 23.5663C9.61144 23.5392 9.67914 23.5121 9.76038 23.485C9.65206 22.9703 9.71976 22.2118 9.40834 21.968C8.13558 20.9521 7.7023 19.6924 7.93248 18.1347C7.94602 17.9992 7.93248 17.8638 7.93248 17.7283C7.94602 16.9698 8.1762 16.6853 8.93444 16.577C9.99056 16.4144 11.0467 16.2654 12.1028 16.13C13.4839 15.9539 14.7973 15.6559 16.07 14.938C17.8573 13.9357 19.2925 12.703 20.1049 10.8067C20.7142 9.37093 21.7433 8.50404 23.2868 8.26022C23.341 8.24668 23.3952 8.23313 23.4222 8.20604C23.5576 8.08414 23.7337 7.96223 23.8149 7.81323C23.9503 7.54233 24.0045 7.24433 24.1128 6.9057C23.5306 6.79734 22.9619 6.66189 22.4067 6.60771C20.7007 6.45871 19.1301 6.01172 17.8031 4.87393C17.6813 4.76556 17.3834 4.75202 17.2209 4.81974C11.6018 7.36624 7.4992 11.4433 4.89952 17.0511C4.81828 17.2136 4.81828 17.4439 4.87244 17.62C5.22448 18.7442 5.6036 19.8685 5.98272 20.9927C6.02334 21.1146 6.09104 21.2636 6.18582 21.3313C7.2961 22.0763 8.41992 22.8213 9.54374 23.5663ZM30.8286 9.14066C32.1014 9.66892 32.1014 9.66892 33.3064 9.35738C33.9293 9.19484 34.5521 9.01875 35.175 8.91039C35.4864 8.85621 35.8655 8.82912 36.1498 8.93748C38.059 9.66892 40.0494 10.0211 42.0397 10.4139C42.1887 10.441 42.3918 10.4545 42.5272 10.3733C42.9469 10.1295 43.3396 9.84501 43.7322 9.58765C43.7052 9.51993 43.7052 9.47929 43.6781 9.4522C42.1074 7.92159 40.3337 6.6348 38.3704 5.60537C38.2485 5.53764 38.0184 5.57828 37.8694 5.646C37.057 6.02527 36.2717 6.45871 35.4593 6.82443C35.1479 6.95989 34.7823 7.0547 34.4438 7.06825C33.6991 7.10888 32.9544 7.06825 32.2097 7.09534C32.0608 7.09534 31.8306 7.19015 31.7629 7.31206C31.4379 7.8945 31.1536 8.50404 30.8286 9.14066Z" fill="#008280" stroke="#008280" stroke-width="0.5"/>
</svg>
