<svg width="39" height="45" viewBox="0 0 39 45" fill="none" xmlns="http://www.w3.org/2000/svg">

<path d="M30.7818 44.9993C21.7751 44.9993 12.7684 44.9993 3.76164 44.9993C3.33535 44.8674 2.87627 44.7905 2.48277 44.5928C0.930641 43.8127 0.24202 42.5054 0.24202 40.7805C0.25295 34.8259 0.24202 28.8604 0.24202 22.9058C0.24202 22.7629 0.24202 22.6091 0.25295 22.4663C0.307603 21.906 0.722962 21.4556 1.26949 21.3567C1.49903 21.3127 1.72857 21.3127 1.96904 21.3127C8.14477 21.3127 14.3205 21.3127 20.4962 21.3127C20.6602 21.3127 20.8241 21.3127 20.9772 21.3127C20.8788 21.1699 20.7695 21.126 20.6711 21.093C19.0097 20.4778 17.3373 19.8735 15.6759 19.2583C10.8009 17.4675 5.91495 15.6877 1.03995 13.897C0.0671319 13.5454 -0.227992 12.9082 0.132715 11.9304C0.67924 10.4143 1.21483 8.90918 1.77229 7.39307C2.48277 5.44849 4.16607 4.36084 6.0789 4.64648C6.64729 4.73437 7.20474 4.9541 7.75127 5.14087C8.83339 5.5144 9.90458 5.9209 10.9976 6.31641C10.9976 6.17358 11.0086 6.06372 10.9976 5.96484C10.7899 3.76758 11.6097 2.03174 13.4461 0.845215C14.08 0.438721 14.8561 0.273926 15.5666 -0.0117188C16.0038 -0.0117188 16.441 -0.0117188 16.8782 -0.0117188C16.9875 0.0212402 17.0968 0.0541992 17.2061 0.0871582C19.4578 0.614502 20.9225 1.95483 21.4362 4.25098C21.633 5.12988 21.7314 6.04175 21.8735 6.93164C21.9609 7.45898 22.0374 7.97534 22.1249 8.5686C22.3981 8.33789 22.584 8.16211 22.7807 7.98633C23.677 7.19531 24.5514 6.37134 25.4915 5.62427C27.3824 4.10815 30.2462 4.20703 32.0716 5.78906C34.0172 7.46997 34.5528 10.2825 33.2958 12.4358C32.9679 12.9961 32.5307 13.4905 32.1372 14.0288C32.2793 14.0837 32.4433 14.1497 32.6181 14.2156C33.8314 14.666 35.0556 15.0945 36.2689 15.5559C38.5206 16.4019 39.5153 18.5332 38.7174 20.8074C38.1708 22.3674 37.6024 23.9165 37.0341 25.4656C36.7061 26.3774 36.0394 26.6631 35.1212 26.3445C34.8589 26.2566 34.5856 26.1577 34.2796 26.0588C34.2796 26.3115 34.2796 26.4763 34.2796 26.6521C34.2796 30.8709 34.2796 35.0896 34.2796 39.3083C34.2796 39.9565 34.2905 40.5938 34.2577 41.2419C34.2031 42.3955 33.7003 43.3403 32.8258 44.0874C32.2356 44.6038 31.5251 44.8345 30.7818 44.9993ZM13.3149 42.3625C13.3149 36.1882 13.3149 30.0798 13.3149 23.9605C9.82806 23.9605 6.3631 23.9605 2.89813 23.9605C2.8872 24.0813 2.87627 24.1692 2.87627 24.2461C2.87627 29.8052 2.87627 35.3752 2.87627 40.9343C2.87627 41.8462 3.40093 42.3625 4.33002 42.3625C6.63636 42.3625 8.93176 42.3625 11.2381 42.3625C11.9158 42.3625 12.5935 42.3625 13.3149 42.3625ZM21.2176 42.3296C21.2942 42.3406 21.3488 42.3625 21.4035 42.3625C24.3875 42.3625 27.3715 42.3735 30.3665 42.3625C31.1316 42.3625 31.6563 41.8022 31.6563 41.0002C31.6672 35.8037 31.6563 30.6072 31.6672 25.4106C31.6672 25.158 31.5688 25.0591 31.3502 24.9712C30.5523 24.6965 29.7653 24.3779 28.9674 24.1143C28.6613 24.0154 28.3225 23.9385 27.9945 23.9385C25.8959 23.9275 23.7972 23.9275 21.6986 23.9275C21.5456 23.9275 21.3925 23.9275 21.2067 23.9275C21.2176 30.1018 21.2176 36.2102 21.2176 42.3296ZM2.97464 11.7986C7.09544 13.3037 11.1725 14.7979 15.2824 16.303C15.8836 14.6331 16.4738 13.0071 17.075 11.3591C16.3645 11.0955 15.6977 10.8538 15.031 10.6121C12.0688 9.52441 9.10665 8.43677 6.13356 7.36011C5.30284 7.05249 4.60329 7.33813 4.30816 8.11816C3.86001 9.30469 3.43372 10.5242 2.97464 11.7986ZM34.9791 23.499C35.4054 22.3125 35.8208 21.1699 36.2361 20.0273C36.6078 18.9946 36.3236 18.3794 35.2961 18.0059C32.7274 17.061 30.1588 16.1272 27.5901 15.1934C26.5517 14.8198 25.5243 14.4353 24.464 14.0508C23.8628 15.7207 23.2726 17.3467 22.6714 18.9946C26.7922 20.4998 30.8583 21.9939 34.9791 23.499ZM18.5506 23.9275C17.8183 23.9275 17.1296 23.9495 16.4519 23.9165C16.0366 23.8945 15.9491 24.0483 15.9491 24.4329C15.9601 30.2446 15.9601 36.0564 15.9601 41.8682C15.9601 42.022 15.971 42.1758 15.9819 42.3296C16.8673 42.3296 17.709 42.3296 18.5506 42.3296C18.5506 36.1992 18.5506 30.1018 18.5506 23.9275ZM19.5999 9.49146C19.3485 7.84351 19.1408 6.31641 18.8785 4.78931C18.6599 3.55884 17.5559 2.67993 16.288 2.65796C15.0638 2.625 13.9379 3.48193 13.6428 4.66846C13.3368 5.90991 13.8505 7.25024 14.9982 7.74463C16.4738 8.37085 18.0041 8.88721 19.5999 9.49146ZM23.524 10.8538C23.5896 10.9087 23.6223 10.9416 23.6551 10.9526C25.0433 11.458 26.4315 12.0073 27.8415 12.4578C28.3115 12.6116 28.8908 12.6006 29.3827 12.4907C30.4758 12.249 31.1972 11.3262 31.3283 10.2166C31.4486 9.15088 30.9348 8.09619 30.0276 7.57983C29.0439 7.01953 27.8743 7.08545 26.9999 7.78857C26.4096 8.26099 25.8522 8.78833 25.2838 9.28271C24.7045 9.79907 24.1142 10.3264 23.524 10.8538ZM20.212 18.0938C20.8132 16.4128 21.4035 14.7869 21.9937 13.1389C21.1411 12.8313 20.3541 12.5457 19.5343 12.249C18.9332 13.9189 18.3429 15.5449 17.7417 17.1929C18.5834 17.5005 19.3704 17.7861 20.212 18.0938Z" fill="#008280"/>

</svg>
