<svg width="32" height="32" viewBox="0 0 32 32" fill="none" xmlns="http://www.w3.org/2000/svg">

<path d="M21.333 2.66602V5.33268H19.9997V9.65668C19.9997 11.2007 20.3343 12.7247 20.981 14.126L26.6903 26.494C27.153 27.498 26.7143 28.686 25.7117 29.1473C25.449 29.27 25.1637 29.3327 24.8743 29.3327H7.125C6.021 29.3327 5.125 28.4367 5.125 27.3327C5.125 27.0433 5.18767 26.7567 5.309 26.494L11.0183 14.126C11.665 12.726 11.9997 11.2007 11.9997 9.65668V5.33268H10.6663V2.66602H21.333ZM17.8503 13.334H14.149C14.0103 13.818 13.8423 14.2953 13.6503 14.762L13.4397 15.2433L8.16633 26.666H23.8317L18.5597 15.2433C18.2743 14.6247 18.037 13.986 17.8503 13.334ZM14.6663 9.65668C14.6663 9.99402 14.653 10.3313 14.6277 10.6673H17.3717C17.3583 10.506 17.3503 10.3447 17.3437 10.182L17.333 9.65668V5.33268H14.6663V9.65668Z" fill="#008280"/>

</svg>
