<svg width="44" height="49" viewBox="0 0 44 49" fill="none" xmlns="http://www.w3.org/2000/svg">

<path d="M22.8407 49C21.8245 48.7834 20.8538 48.4585 20.0196 47.8087C17.9417 46.2305 17.1075 43.5384 17.9265 41.0938C18.7759 38.6028 21.0813 36.9782 23.69 37.0556C26.1774 37.1175 28.4222 38.8967 29.1199 41.3723C29.1654 41.5115 29.1957 41.6508 29.2412 41.79C31.4708 42.2387 35.5508 40.1809 36.8703 37.8601C36.4608 37.8601 36.0968 37.8601 35.7328 37.8601C34.8986 37.8446 34.4739 37.4114 34.4739 36.545C34.4739 31.6713 34.4739 26.7821 34.4739 21.9084C34.4739 21.599 34.5346 21.2741 34.6407 20.9801C34.8076 20.5314 35.1412 20.2684 35.6569 20.2839C36.0209 20.2993 36.4001 20.2839 36.749 20.2839C36.7945 20.2065 36.8248 20.191 36.8248 20.1601C37.0068 16.5396 36.8096 12.9656 34.8379 9.77834C31.7286 4.71898 27.224 2.16609 21.3543 2.52195C14.3622 2.90875 8.79584 8.26208 7.88581 15.3328C7.67347 16.9419 7.74931 18.5819 7.68864 20.2839C8.12849 20.2839 8.47733 20.2839 8.82618 20.2839C9.5542 20.2839 9.97888 20.6707 10.0851 21.4133C10.1154 21.6299 10.1154 21.862 10.1154 22.0786C10.1154 26.875 10.1154 31.6713 10.1154 36.4831C10.1154 37.4424 9.73621 37.8447 8.78068 37.8447C7.32463 37.8447 5.86858 37.8911 4.4277 37.8137C2.06161 37.7054 0.120215 35.7559 0.0595462 33.3423C-0.00112252 30.5573 0.0140447 27.7569 0.0595462 24.9719C0.105048 22.6356 2.04645 20.1446 4.88271 20.2684C5.01922 20.2684 5.15572 20.2684 5.38323 20.2684C5.38323 20.0363 5.38323 19.8352 5.38323 19.634C5.3984 17.7774 5.29222 15.9053 5.68657 14.0641C6.93028 8.09189 10.2671 3.75971 15.7576 1.39249C24.9944 -2.5993 35.3839 2.36723 38.4629 12.0837C39.0695 13.9867 39.2819 15.9362 39.2667 17.9321C39.2667 18.6902 39.2667 19.4638 39.2667 20.2684C40.2071 20.2839 41.0413 20.5624 41.7541 21.1658C43.104 22.2952 43.9079 23.7806 43.9534 25.5444C44.0444 28.2674 44.0292 30.9905 43.9837 33.7291C43.9534 35.7869 42.6945 37.2567 40.7076 37.6126C40.0099 37.7363 39.6307 38.0458 39.2667 38.6183C37.4618 41.527 34.8834 43.3218 31.577 44.018C30.8338 44.1727 30.0602 44.2191 29.2715 44.312C28.9227 46.1686 27.861 47.5456 26.1623 48.3811C25.5404 48.6906 24.8427 48.8298 24.1754 49.0464C23.7204 49 23.2805 49 22.8407 49ZM7.71897 22.682C6.79378 22.682 5.89891 22.682 5.01922 22.682C3.42666 22.682 2.41046 23.6877 2.39529 25.3123C2.38013 27.8961 2.38013 30.48 2.39529 33.0483C2.39529 34.1932 3.15365 35.2144 4.26086 35.3382C5.3984 35.462 6.5511 35.3691 7.71897 35.3691C7.71897 31.1607 7.71897 26.9523 7.71897 22.682ZM36.8703 35.4001C37.841 35.4001 38.7662 35.4465 39.6762 35.3846C40.9958 35.3072 41.6025 34.5955 41.6025 33.2494C41.6025 30.8513 41.6025 28.4376 41.6025 26.0395C41.6025 25.1576 41.375 24.3066 40.8289 23.6413C40.5104 23.2545 40.0554 22.8213 39.6156 22.7594C38.7207 22.6201 37.7955 22.713 36.8703 22.713C36.8703 26.9523 36.8703 31.1607 36.8703 35.4001ZM26.9813 43.0742C26.9661 40.9855 25.4342 39.4073 23.4473 39.4228C21.5514 39.4383 19.9741 41.0474 19.9892 42.9659C20.0044 44.9154 21.6576 46.6018 23.5687 46.5864C25.4646 46.5554 26.9965 44.9773 26.9813 43.0742Z" fill="#FF8484"/>




</svg>
