<svg xmlns="http://www.w3.org/2000/svg" width="36" height="62" viewBox="0 0 36 62" fill="none">
  <path d="M17.3143 2.17738C19.2956 0.353998 22.3573 0.414518 24.2661 2.3745C26.174 4.33535 26.2398 7.45819 24.4651 9.49512L17.3126 16.8371L10.1618 9.49512C8.38714 7.45819 8.45377 4.33017 10.3608 2.3745C12.2713 0.417112 15.3271 0.351404 17.3143 2.17738ZM23.0717 3.59614C21.8065 2.29756 19.7654 2.24482 18.4412 3.46386L17.3151 4.49962L16.1883 3.46473C14.8598 2.24395 12.8229 2.29756 11.5543 3.59787C10.2976 4.88609 10.2343 6.94809 11.3924 8.31066L17.3134 14.3895L23.2345 8.31152C24.3934 6.94809 24.3302 4.88868 23.0717 3.59614Z" fill="#D53A42"/>
  <path fill-rule="evenodd" clip-rule="evenodd" d="M10.5398 2.54904C12.3556 0.688753 15.2572 0.626655 17.1451 2.36147L10.5398 2.54904ZM17.3142 1.84416C15.2267 0.0812852 12.1336 0.200253 10.1819 2.19989C8.18328 4.24946 8.11375 7.52498 9.97327 9.65934L17.3126 17.1954L24.6442 9.66957L24.6536 9.65934C26.5132 7.52489 26.4444 4.25479 24.4452 2.20016C22.4951 0.197674 19.3963 0.0837499 17.3142 1.84416ZM24.0869 2.54884C22.2731 0.686428 19.3658 0.629099 17.4836 2.36134L17.3144 2.51702L17.1451 2.36147M24.0869 2.54884C25.9019 4.41425 25.9662 7.38619 24.2811 9.32571L17.3126 16.4788L10.3458 9.32572C8.66066 7.38613 8.72602 4.40914 10.5398 2.54904M16.3574 3.28065L17.315 4.16007L18.2718 3.27993C19.6958 1.96914 21.8914 2.02638 23.2508 3.42169C24.5993 4.80675 24.6673 7.01189 23.425 8.47343L23.4195 8.4799L17.3134 14.7477L11.2074 8.47902L11.2019 8.47256C9.96056 7.01203 10.0282 4.80422 11.3754 3.4233C12.7381 2.02648 14.9292 1.96825 16.3574 3.28065ZM16.0191 3.64881C14.7904 2.51971 12.9077 2.56865 11.7333 3.77245C10.5689 4.96595 10.5083 6.87775 11.5775 8.14241L17.3135 14.0312L23.0494 8.14326C24.1194 6.8779 24.059 4.96854 22.8926 3.77054C21.7217 2.56875 19.8349 2.52059 18.6105 3.6478L17.3153 4.83918L16.0191 3.64881Z" fill="#D53A42"/>
  <path d="M3.05399 41.544C-0.222241 42.866 -1.05141 46.7799 1.4943 49.3002C4.23189 52.0095 6.98428 54.7044 9.73667 57.3992C11.0981 58.7393 12.6666 59.7881 14.5016 60.3999L14.6597 59.9255M3.05399 41.544L14.6597 59.9255M3.05399 41.544C3.07863 41.5799 3.10367 41.6157 3.12912 41.6514L3.25351 41.5628L3.05399 41.544ZM14.6597 59.9255C15.4294 60.1815 16.2185 60.3531 17.0345 60.5306C17.3303 60.5949 17.6296 60.66 17.9328 60.7302H17.9374H17.9422H17.947H17.9517H17.9565H17.9613H17.9661H17.9708H17.9756H17.9804H17.9851H17.9899H17.9947H17.9994H18.0042H18.009H18.0137H18.0185H18.0233H18.028H18.0328H18.0376H18.0424H18.0471H18.0519H18.0567H18.0614H18.0662H18.071H18.0757H18.0805H18.0853H18.09H18.0948H18.0996H18.1043H18.1091H18.1139H18.1187H18.1234H18.1282H18.133H18.1377H18.1425H18.1473H18.152H18.1568H18.1616H18.1663H18.1711H18.1759H18.1807H18.1854H18.1902H18.195H18.1997H18.2045H18.2093H18.214H18.2188H18.2236H18.2283H18.2331H18.2379H18.2426H18.2474H18.2522H18.257H18.2617H18.2665H18.2713H18.276H18.2808H18.2856H18.2903H18.2951H18.2999H18.3046H18.3094H18.3142H18.3189H18.3237H18.3285H18.3333H18.338H18.3428H18.3476H18.3523H18.3571H18.3619H18.3666H18.3714H18.3762H18.3809H18.3857H18.3905H18.3952H18.4H18.4048H18.4096H18.4143H18.4191H18.4239H18.4286H18.4334H18.4382H18.4429H18.4477H18.4525H18.4572H18.462H18.4668H18.4715H18.4763H18.4811H18.4859H18.4906H18.4954H18.5002H18.5049H18.5097H18.5145H18.5192H18.524H18.5288H18.5335H18.5383H18.5431H18.5478H18.5526H18.5574H18.5622H18.5669H18.5717H18.5765H18.5812H18.586H18.5908H18.5955H18.6003H18.6051H18.6098H18.6146H18.6194H18.6242H18.6289H18.6337H18.6385H18.6432H18.648H18.6528H18.6575H18.6623H18.6671H18.6718H18.6766H18.6814H18.6861H18.6909H18.6957H18.7005H18.7052H18.71H18.7148H18.7195H18.7243H18.7291H18.7338H18.7386H18.7434H18.7481H18.7529H18.7577H18.7624H18.7672H18.772H18.7768H18.7815H18.7863H18.7911H18.7958H18.8006H18.8054H18.8101H18.8149H18.8197H18.8244H18.8292H18.834H18.8387H18.8435H18.8483H18.8531H18.8578H18.8626H18.8674H18.8721H18.8769H18.8817H18.8864H18.8912H18.896H18.9007H18.9055H18.9103H18.915H18.9198H18.9246H18.9294H18.9341H18.9389H18.9437H18.9484H18.9532H18.958H18.9627H18.9675H18.9723H18.977H18.9818H18.9866H18.9914H18.9961H19.0009H19.0057H19.0104H19.0152H19.02H19.0247H19.0295H19.0343H19.039H19.0438H19.0486H19.0533H19.0581H19.0629H19.0677H19.0724H19.0772H19.082H19.0867H19.0915H19.0963H19.101H19.1058H19.1106H19.1153H19.1201H19.1249H19.1296H19.1344H19.1392H19.144H19.1487H19.1535H19.1583H19.163H19.1678H19.1726H19.1773H19.1821H19.1869H19.1916H19.1964H19.2012H19.2059H19.2107H19.2155H19.2203H19.225H19.2298H19.2346H19.2393H19.2441H19.2489H19.2536H19.2584H19.2632H19.2679H19.2727H19.2775H19.2822H19.287H19.2918H19.2966H19.3013H19.3061H19.3109H19.3156H19.3204H19.3252H19.3299H19.3347H19.3395H19.3442H19.349H19.3538H19.3585H19.3633H19.3681H19.3729H19.3776H19.3824H19.3872H19.3919H19.3967H19.4015H19.4062H19.411H19.4158H19.4205H19.4253H19.4301H19.4349H19.4396H19.4444H19.4492H19.4539H19.4587H19.4635H19.4682H19.473H19.4778H19.4825H19.4873H19.4921H19.4968H19.5016H19.5064H19.5112H19.5159H19.5207H19.5255H19.5302H19.535H19.5398H19.5445H19.5493H19.5541H19.5588H19.5636H19.5684H19.5731H19.5779H19.5827H19.5875H19.5922H19.597H19.6018H19.6065H19.6113H19.6161H19.6208H19.6256H19.6304H19.6351H19.6399H19.6447H19.6494H19.6542H19.659H19.6638H19.6685H19.6733H19.6781H19.6828H19.6876H19.6924H19.6971H19.7019H19.7067H19.7114H19.7162H19.721H19.7257H19.7305H19.7353H19.7401H19.7448H19.7496H19.7544H19.7591H19.7639H19.7687H19.7734H19.7782H19.783H19.7877H19.7925H19.7973H19.802H19.8068H19.8116H19.8164H19.8211H19.8259H19.8307H19.8354H19.8402H19.845H19.8497H19.8545H19.8593H19.864H19.8688H19.8736H19.8783H19.8831H19.8879H19.8927H19.8974H19.9022H19.907H19.9117H19.9165H19.9213H19.926H19.9308H19.9356H19.9403H19.9451H19.9499H19.9547H19.9594H19.9642H19.969H19.9737H19.9785H19.9833H19.988H19.9928H19.9976H20.0023H20.0071H20.0119H20.0166H20.0214H20.0262H20.031H20.0357H20.0405H20.0453H20.05H20.0548H20.0596H20.0643H20.0691H20.0739H20.0786H20.0834H20.0882H20.0929H20.0977H20.1025H20.1073H20.112H20.1168H20.1216H20.1263H20.1311H20.1359H20.1406H20.1454H20.1502H20.1549H20.1597H20.1645H20.1692H20.174H20.1788H20.1836H20.1883H20.1931H20.1979H20.2026H20.2074H20.2122H20.2169H20.2172C20.3086 60.6936 20.4297 60.6511 20.5582 60.6331L20.5704 60.6314L20.5705 60.6315C23.3625 60.309 25.7789 59.1763 27.8178 57.2821C28.637 56.5067 29.4392 55.7111 30.2473 54.9098C30.5723 54.5874 30.8984 54.2641 31.2268 53.9407C36.2826 48.9356 36.2964 41.3011 31.2551 36.2825C30.6842 35.7143 30.1055 35.1464 29.526 34.5777C28.7506 33.8168 27.974 33.0547 27.2133 32.2893L27.2082 32.2841L27.2033 32.2788C26.9341 31.9918 26.772 31.547 26.772 31.1793V31.1678L26.7722 31.1678C26.7873 30.5124 26.8329 29.8465 26.9415 29.1896L26.9418 29.1877C26.9512 29.1322 26.9606 29.0766 26.97 29.0209C27.3113 26.9984 27.6792 24.8184 29.4221 23.1027C30.3357 22.2035 30.3555 20.9354 30.2653 19.4702C30.1604 17.8623 29.0453 16.411 27.3885 15.8322C25.8146 15.2856 24.0872 15.7154 22.9659 16.9491L22.9641 16.9511C21.8783 18.1325 21.0258 19.4631 20.4584 20.9432L20.4578 20.9447C20.2135 21.5762 20.0221 22.2063 19.8089 22.9085C19.7188 23.2052 19.6248 23.5147 19.5213 23.8427L19.2603 24.6692L18.6755 24.0295C18.5334 23.8742 18.4037 23.7282 18.2804 23.5895C18.0384 23.3174 17.8212 23.073 17.5839 22.8394L17.5827 22.8382C16.153 21.4212 14.724 20.0178 13.2941 18.6135C12.5787 17.9108 11.863 17.2079 11.1468 16.503C9.96716 15.3417 8.61302 14.8846 7.00726 15.2502C3.77893 15.9961 2.62165 19.7869 4.91612 22.1493L4.91874 22.152L4.91873 22.152C5.89866 23.1763 6.90879 24.1552 7.92809 25.143C8.39506 25.5955 8.86395 26.0499 9.33274 26.5113C9.46282 26.6394 9.59215 26.7795 9.72251 26.9209C9.73621 26.9357 9.74992 26.9506 9.76364 26.9654L10.2956 27.5414L9.54898 27.7808C8.36936 28.159 7.40713 28.9469 6.87726 29.9723C6.35146 30.9898 6.23444 32.273 6.79778 33.6894L7.01028 34.2237L6.45166 34.3599C4.91873 34.7338 3.84961 35.5937 3.3085 37.0228C2.7699 38.4453 3.0184 39.7721 3.94367 41.0713L4.31468 41.5923L3.71958 41.8266L3.70925 41.8307C3.57476 41.8836 3.48922 41.9173 3.39022 41.9501C0.316758 43.0818 -0.477272 46.6447 1.84607 48.9448C4.58253 51.6531 7.33393 54.3469 10.0865 57.0419L10.0874 57.0428C11.4042 58.3391 12.9091 59.3419 14.6597 59.9255ZM19.1749 59.3995L19.1656 59.3995C16.3759 59.4147 13.6719 58.5323 11.4802 56.4666L11.4788 56.4653C9.00944 54.1196 6.60146 51.733 4.19105 49.3441C3.7079 48.8653 3.22465 48.3863 2.7408 47.9076L3.09246 47.5522M19.1749 59.3995L9.92166 17.2157C8.38424 15.8418 5.94281 16.3978 5.25515 18.3395L5.25503 18.3399C5.04648 18.9301 5.02175 19.4998 5.17777 20.0385C5.33194 20.5708 5.65178 21.0359 6.0733 21.4431L6.11819 21.4871C9.69857 24.997 13.2639 28.4922 16.8292 32.0018C17.107 32.2752 17.2074 32.4998 17.2251 32.656C17.2405 32.7917 17.202 32.9422 17.0314 33.115C16.871 33.2773 16.7056 33.3286 16.5371 33.3127C16.3536 33.2953 16.1106 33.1912 15.8417 32.9331L14.3122 31.4275L12.7806 29.9199C11.9708 29.1228 10.9438 28.793 9.80358 29.1262L9.8026 29.1265C7.69615 29.7468 7.0817 32.306 8.6272 33.8623L8.62733 33.8624C9.51766 34.7583 10.4234 35.6434 11.326 36.5254C11.7751 36.9643 12.2235 37.4025 12.6688 37.8408C12.9183 38.0931 13.0065 38.3057 13.0193 38.4559C13.0307 38.59 12.9886 38.7405 12.819 38.9075L12.819 38.9074L12.8137 38.9127C12.6682 39.0603 12.505 39.1159 12.3375 39.1053C12.1623 39.0942 11.9407 39.0065 11.7128 38.7886L11.7106 38.7864L11.706 38.7819L11.7014 38.7774L11.6968 38.7728L11.6922 38.7683L11.6876 38.7638L11.683 38.7593L11.6784 38.7547L11.6738 38.7502L11.6692 38.7457L11.6646 38.7412L11.66 38.7367L11.6554 38.7321L11.6508 38.7276L11.6463 38.7231L11.6417 38.7186L11.6371 38.714L11.6325 38.7095L11.6279 38.705L11.6233 38.7005L11.6187 38.6959L11.6141 38.6914L11.6095 38.6869L11.6049 38.6824L11.6003 38.6778L11.5957 38.6733L11.5911 38.6688L11.5865 38.6643L11.5819 38.6597L11.5773 38.6552L11.5727 38.6507L11.5681 38.6462L11.5635 38.6417L11.5589 38.6371L11.5543 38.6326L11.5497 38.6281L11.5452 38.6236L11.5406 38.619L11.536 38.6145L11.5314 38.61L11.5268 38.6055L11.5222 38.6009L11.5176 38.5964L11.513 38.5919L11.5084 38.5874L11.5038 38.5828L11.4992 38.5783L11.4946 38.5738L11.49 38.5693L11.4854 38.5648L11.4808 38.5602L11.4762 38.5557L11.4716 38.5512L11.467 38.5467L11.4624 38.5421L11.4578 38.5376L11.4532 38.5331L11.4486 38.5286L11.4441 38.524L11.4395 38.5195L11.4349 38.515L11.4303 38.5105L11.4257 38.5059L11.4211 38.5014L11.4165 38.4969L11.4119 38.4924L11.4073 38.4879L11.4027 38.4833L11.3981 38.4788L11.3935 38.4743L11.3889 38.4698L11.3843 38.4652L11.3797 38.4607L11.3751 38.4562L11.3705 38.4517L11.3659 38.4471L11.3613 38.4426L11.3567 38.4381L11.3521 38.4336L11.3475 38.429L11.343 38.4245L11.3384 38.42L11.3338 38.4155L11.3292 38.411L11.3246 38.4064L11.32 38.4019L11.3154 38.3974L11.3108 38.3929L11.3062 38.3883L11.3016 38.3838L11.297 38.3793L11.2924 38.3748L11.2878 38.3702L11.2832 38.3657L11.2786 38.3612L11.274 38.3567L11.2694 38.3521L11.2648 38.3476L11.2602 38.3431L11.2556 38.3386L11.251 38.3341L11.2465 38.3295L11.2419 38.325L11.2373 38.3205L11.2327 38.316L11.2281 38.3114L11.2235 38.3069L11.2189 38.3024L11.2143 38.2979L11.2097 38.2933L11.2051 38.2888L11.2005 38.2843L11.1959 38.2798L11.1913 38.2752L11.1867 38.2707L11.1821 38.2662L11.1775 38.2617L11.1729 38.2571L11.1683 38.2526L11.1637 38.2481L11.1591 38.2436L11.1545 38.2391L11.1499 38.2345L11.1454 38.23L11.1408 38.2255L11.1362 38.221L11.1316 38.2164L11.127 38.2119L11.1224 38.2074L11.1178 38.2029L11.1132 38.1983L11.1086 38.1938L11.104 38.1893L11.0994 38.1848L11.0948 38.1802L11.0902 38.1757L11.0856 38.1712L11.081 38.1667L11.0764 38.1622L11.0718 38.1576L11.0672 38.1531L11.0626 38.1486L11.058 38.1441L11.0534 38.1395L11.0488 38.135L11.0443 38.1305L11.0397 38.126L11.0351 38.1214L11.0305 38.1169L11.0259 38.1124L11.0213 38.1079L11.0167 38.1033L11.0121 38.0988L11.0075 38.0943L11.0029 38.0898L10.9983 38.0853L10.9937 38.0807L10.9891 38.0762L10.9845 38.0717L10.9799 38.0672L10.9753 38.0626L10.9707 38.0581L10.9661 38.0536L10.9615 38.0491L10.9569 38.0445L10.9523 38.04L10.9477 38.0355L10.9432 38.031L10.9386 38.0264L10.934 38.0219L10.9294 38.0174L10.9248 38.0129L10.9202 38.0084L10.9156 38.0038L10.911 37.9993L10.9064 37.9948L10.9018 37.9903L10.8972 37.9857L10.8926 37.9812L10.888 37.9767L10.8834 37.9722L10.8788 37.9676L10.8742 37.9631L10.8696 37.9586L10.865 37.9541L10.8604 37.9495L10.8558 37.945L10.8512 37.9405L10.8467 37.936L10.8421 37.9314L10.8375 37.9269L10.8329 37.9224L10.8283 37.9179L10.8237 37.9134L10.8191 37.9088L10.8145 37.9043L10.8099 37.8998L10.8053 37.8953L10.8007 37.8907L10.7961 37.8862L10.7915 37.8817L10.7869 37.8772L10.7823 37.8726L10.7777 37.8681L10.7731 37.8636L10.7685 37.8591L10.7639 37.8545L10.7593 37.85L10.7547 37.8455L10.7501 37.841L10.7456 37.8365L10.741 37.8319L10.7364 37.8274L10.7318 37.8229L10.7272 37.8184L10.7226 37.8138L10.718 37.8093L10.7134 37.8048L10.7088 37.8003L10.7042 37.7957L10.6996 37.7912L10.695 37.7867L10.6904 37.7822L10.6858 37.7776L10.6812 37.7731L10.6766 37.7686L10.672 37.7641L10.6674 37.7596L10.6628 37.755L10.6582 37.7505L10.6536 37.746L10.649 37.7415L10.6445 37.7369L10.6399 37.7324L10.6353 37.7279L10.6307 37.7234L10.6261 37.7188L10.6215 37.7143L10.6169 37.7098L10.6123 37.7053L10.6077 37.7007L10.6031 37.6962L10.5985 37.6917L10.5939 37.6872L10.5893 37.6827L10.5847 37.6781L10.5801 37.6736L10.5755 37.6691L10.5709 37.6646L10.5663 37.66L10.5617 37.6555L10.5571 37.651L10.5525 37.6465L10.5479 37.6419L10.5434 37.6374L10.5388 37.6329L10.5342 37.6284L10.5296 37.6238L10.525 37.6193L10.5204 37.6148L10.5158 37.6103L10.5112 37.6058L10.5066 37.6012L10.502 37.5967L10.4974 37.5922L10.4928 37.5877L10.4882 37.5831L10.4836 37.5786L10.479 37.5741L10.4744 37.5696L10.4698 37.565L10.4652 37.5605L10.4606 37.556L10.456 37.5515L10.4514 37.5469L10.4468 37.5424L10.4423 37.5379L10.4377 37.5334L10.4331 37.5288L10.4285 37.5243L10.4239 37.5198L10.4193 37.5153L10.4147 37.5108L10.4101 37.5062L10.4055 37.5017L10.4009 37.4972L10.3963 37.4927L10.3917 37.4881L10.3871 37.4836L10.3825 37.4791L10.3779 37.4746L10.3733 37.47L10.3687 37.4655L10.3641 37.461L10.3595 37.4565L10.3549 37.4519L10.3503 37.4474L10.3458 37.4429L10.3412 37.4384L10.3366 37.4339L10.332 37.4293L10.3274 37.4248L10.3228 37.4203L10.3182 37.4158L10.3136 37.4112L10.309 37.4067L10.3044 37.4022L10.2998 37.3977L10.2952 37.3931L10.2906 37.3886L10.286 37.3841L10.2814 37.3796L10.2768 37.375L10.2722 37.3705L10.2676 37.366L10.263 37.3615L10.2584 37.357L10.2538 37.3524L10.2492 37.3479L10.2447 37.3434L10.2401 37.3389L10.2355 37.3343L10.2309 37.3298L10.2263 37.3253L10.2217 37.3208L10.2171 37.3162L10.2125 37.3117L10.2079 37.3072L10.2033 37.3027L10.1987 37.2981L10.1941 37.2936L10.1895 37.2891L10.1849 37.2846L10.1803 37.2801L10.1757 37.2755L10.1711 37.271L10.1665 37.2665L10.1619 37.262L10.1573 37.2574L10.1527 37.2529L10.1481 37.2484L10.1436 37.2439L10.139 37.2393L10.1344 37.2348L10.1298 37.2303L10.1252 37.2258L10.1206 37.2212L10.116 37.2167L10.1114 37.2122L10.1068 37.2077L10.1022 37.2031L10.0976 37.1986L10.093 37.1941L10.0884 37.1896L10.0838 37.1851L10.0792 37.1805L10.0746 37.176L10.07 37.1715L10.0654 37.167L10.0608 37.1624L10.0562 37.1579L10.0516 37.1534L10.047 37.1489L10.0425 37.1443L10.0379 37.1398L10.0333 37.1353L10.0287 37.1308L10.0241 37.1262L10.0195 37.1217L10.0149 37.1172L10.0103 37.1127L10.0057 37.1082L10.0011 37.1036L9.9965 37.0991L9.99191 37.0946L9.98731 37.0901L9.98271 37.0855L9.97812 37.081L9.97352 37.0765L9.96893 37.072L9.96433 37.0674L9.95974 37.0629L9.95514 37.0584L9.95055 37.0539L9.94595 37.0493L9.94136 37.0448L9.93676 37.0403L9.93216 37.0358L9.92757 37.0313L9.92297 37.0267L9.91838 37.0222L9.91378 37.0177L9.90919 37.0132L9.90459 37.0086L9.9 37.0041L9.8954 36.9996L9.89081 36.9951L9.88621 36.9905L9.88162 36.986L9.87702 36.9815L9.87242 36.977L9.86783 36.9724L9.86323 36.9679L9.85864 36.9634L9.85404 36.9589L9.84945 36.9544L9.84485 36.9498L9.84026 36.9453L9.83566 36.9408L9.83107 36.9363L9.82647 36.9317L9.82187 36.9272L9.81728 36.9227L9.81268 36.9182L9.80809 36.9136L9.80349 36.9091L9.7989 36.9046L9.7943 36.9001L9.78971 36.8955L9.78511 36.891L9.78052 36.8865L9.77592 36.882L9.77133 36.8775L9.76673 36.8729L9.76213 36.8684L9.75754 36.8639L9.75294 36.8594L9.74835 36.8548L9.74375 36.8503L9.73916 36.8458L9.73456 36.8413L9.72997 36.8367L9.72537 36.8322L9.72078 36.8277L9.71618 36.8232L9.71159 36.8186L9.70699 36.8141L9.70239 36.8096L9.6978 36.8051L9.6932 36.8006L9.68861 36.796L9.68401 36.7915L9.67942 36.787L9.67482 36.7825L9.67023 36.7779L9.66563 36.7734L9.66104 36.7689L9.65644 36.7644L9.65184 36.7598L9.64725 36.7553L9.64265 36.7508L9.63806 36.7463L9.63346 36.7417L9.62887 36.7372L9.62427 36.7327L9.61968 36.7282L9.61508 36.7236L9.61049 36.7191L9.60589 36.7146L9.6013 36.7101L9.5967 36.7056L9.5921 36.701L9.58751 36.6965L9.58291 36.692L9.57832 36.6875L9.57372 36.6829L9.56913 36.6784L9.56453 36.6739L9.55994 36.6694L9.55534 36.6648L9.55075 36.6603L9.54615 36.6558L9.54156 36.6513L9.53696 36.6467L9.53236 36.6422L9.52777 36.6377L9.52317 36.6332L9.51858 36.6287L9.51398 36.6241L9.50939 36.6196L9.50479 36.6151L9.5002 36.6106L9.4956 36.606L9.49101 36.6015L9.48641 36.597L9.48181 36.5925L9.47722 36.5879L9.47262 36.5834L9.46803 36.5789L9.46343 36.5744L9.45884 36.5698L9.45424 36.5653L9.44965 36.5608L9.44505 36.5563L9.44046 36.5518L9.43586 36.5472L9.43127 36.5427L9.42667 36.5382L9.42207 36.5337L9.41748 36.5291L9.41288 36.5246L9.40829 36.5201L9.40369 36.5156L9.3991 36.511L9.3945 36.5065L9.38991 36.502L9.38531 36.4975L9.38072 36.4929L9.37612 36.4884L9.37152 36.4839L9.36693 36.4794L9.36233 36.4748L9.36236 36.4748L9.3578 36.4704C8.67248 35.8127 7.80704 35.4615 6.80906 35.6395C5.70437 35.8299 4.89845 36.4909 4.5418 37.5617C4.18234 38.6409 4.46335 39.651 5.23781 40.4311C5.78825 40.9876 6.34934 41.5363 6.90695 42.0816L6.90847 42.083C7.4675 42.6297 8.02303 43.1729 8.56705 43.7229C8.75441 43.9126 8.81992 44.0928 8.82443 44.2342C8.82883 44.3719 8.77765 44.5271 8.62578 44.6813C8.36289 44.9481 7.96083 44.9841 7.5884 44.6489C7.41899 44.4913 7.26104 44.3328 7.09382 44.165C7.00522 44.0761 6.91401 43.9846 6.81712 43.8892L6.8172 43.8891L6.809 43.8814C5.62138 42.7639 3.88013 42.7263 2.72831 43.8587C1.58043 44.9724 1.55122 46.7366 2.7417 47.9085L3.09246 47.5522M19.1749 59.3995L19.1841 59.3991M19.1749 59.3995L19.1841 59.3991M3.09246 47.5522C2.10101 46.5762 2.13061 45.1341 3.07767 44.2164L11.8232 56.1027C9.35792 53.761 6.9543 51.3788 4.54386 48.9898C4.06052 48.5108 3.5769 48.0315 3.09246 47.5522ZM19.1841 59.3991C22.3776 59.263 24.9688 58.1685 27.1049 56.0658C27.456 55.7202 27.8121 55.3728 28.1697 55.024C28.8902 54.3212 29.6169 53.6125 30.3209 52.8999L30.3224 52.8984M19.1841 59.3991L30.3224 52.8984M30.3224 52.8984C30.7296 52.4827 31.1307 52.0432 31.4892 51.5676L31.4911 51.565M30.3224 52.8984L31.4911 51.565M31.4911 51.565C34.795 47.1217 34.2931 41.1327 30.3012 37.2032M31.4911 51.565L30.3012 37.2032M25.297 30.3146L24.645 29.7311C24.6308 29.7184 24.6166 29.7058 24.6024 29.6931C24.4638 29.5693 24.3263 29.4465 24.1894 29.2981C23.9509 29.063 23.7244 28.8295 23.5024 28.6005C22.9903 28.0725 22.5021 27.569 21.9454 27.1287L21.9438 27.1274C21.4513 26.7346 21.1278 26.29 20.969 25.77C20.813 25.2586 20.8311 24.7221 20.9354 24.1685C21.364 21.8342 22.2869 19.7373 23.8942 17.9269C24.7326 16.9814 25.8472 16.6812 26.9821 17.089L25.297 30.3146ZM25.297 30.3146L25.4687 29.4566M25.297 30.3146L25.4687 29.4566M25.4687 29.4566C25.5314 29.1431 25.5885 28.8399 25.6442 28.5442C25.7637 27.9091 25.8768 27.3083 26.0258 26.7121L26.0265 26.7091M25.4687 29.4566L26.0265 26.7091M26.0265 26.7091C26.3718 25.2905 26.7183 23.992 27.6672 23.0579M26.0265 26.7091L27.6672 23.0579M30.3012 37.2032C26.276 33.2408 22.2505 29.2912 18.2254 25.3419M30.3012 37.2032L18.2254 25.3419M18.2254 25.3419C16.213 23.3675 14.2007 21.3931 12.1886 19.4173M18.2254 25.3419L12.1886 19.4173M12.1886 19.4173C11.9936 19.2253 11.7971 19.0287 11.5987 18.8302C11.0589 18.2901 10.5041 17.7351 9.92191 17.216L12.1886 19.4173ZM27.6672 23.0579C28.6462 22.0943 29.0244 21.0322 28.9249 19.7226M27.6672 23.0579L28.9249 19.7226M28.9249 19.7226C28.838 18.511 28.1628 17.5119 26.9824 17.0891L28.9249 19.7226ZM3.25609 41.561L3.5364 41.3614L3.35321 40.8961C3.3156 40.911 3.28365 40.9235 3.25576 40.9344C2.47994 39.647 2.29492 38.2877 2.8409 36.8457C3.38752 35.4021 4.42663 34.4788 5.84999 34.0117C5.85612 34.0275 5.86231 34.0432 5.86858 34.0589L6.33318 33.8742L6.21469 33.3884C6.19854 33.3923 6.18243 33.3963 6.16635 33.4004C5.34482 30.7202 6.71978 28.4353 8.89097 27.4945C8.9228 27.5288 8.95569 27.5645 8.98998 27.6016C9.00278 27.6155 9.01578 27.6296 9.029 27.6439L9.39632 27.3046L9.24366 26.8285C9.16836 26.8527 9.09371 26.8782 9.01975 26.9052C9.00715 26.8926 8.99457 26.88 8.98198 26.8676C8.51928 26.4122 8.05368 25.961 7.58836 25.51C6.56553 24.5188 5.54401 23.5289 4.55744 22.4977C1.98263 19.8466 3.29963 15.5931 6.89549 14.7628C8.68602 14.355 10.2102 14.8794 11.4976 16.1467C12.2128 16.8507 12.928 17.5531 13.6433 18.2556C15.0737 19.6604 16.5042 21.0653 17.9346 22.4831L3.25609 41.561Z" fill="#D53A42" stroke="#D53A42"/>
</svg>
