<svg width="46" height="47" viewBox="0 0 46 47" fill="none" xmlns="http://www.w3.org/2000/svg">
<path d="M28.8892 11.5312H16.7834C13.4404 11.5312 10.7305 14.2412 10.7305 17.5842V29.69C10.7305 33.0329 13.4404 35.7429 16.7834 35.7429H28.8892C32.2321 35.7429 34.9421 33.0329 34.9421 29.69V17.5842C34.9421 14.2412 32.2321 11.5312 28.8892 11.5312Z" stroke="white" stroke-linecap="round" stroke-linejoin="round"/>
<path d="M22.8366 28.177C25.3438 28.177 27.3762 26.1445 27.3762 23.6373C27.3762 21.1301 25.3438 19.0977 22.8366 19.0977C20.3294 19.0977 18.2969 21.1301 18.2969 23.6373C18.2969 26.1445 20.3294 28.177 22.8366 28.177Z" stroke="white" stroke-linecap="round" stroke-linejoin="round"/>
<path d="M29.6484 16.8281V16.8291" stroke="white" stroke-width="2.75" stroke-linecap="round" stroke-linejoin="round"/>
</svg>
