<svg width="29" height="29" viewBox="0 0 29 29" fill="none" xmlns="http://www.w3.org/2000/svg">

<path d="M25.375 3.625V6.04167C25.375 17.6743 18.8826 22.9583 10.875 22.9583H6.33529C6.13833 24.0603 6.04167 25.2626 6.04167 26.5833H3.625C3.625 24.9364 3.76517 23.4417 4.04308 22.0738C3.76517 20.5103 3.625 18.3884 3.625 15.7083C3.625 9.03471 9.03471 3.625 15.7083 3.625C18.125 3.625 20.5417 4.83333 25.375 3.625ZM15.7083 6.04167C10.3699 6.04167 6.04167 10.3699 6.04167 15.7083C6.04167 16.1458 6.04529 16.5675 6.05375 16.9722C7.569 14.5822 9.78871 12.6935 12.6923 11.0345L13.891 13.1322C10.4412 15.1042 8.15263 17.3444 6.97933 20.5417H10.875C18.1431 20.5417 22.8025 15.741 22.9547 6.5105C21.2969 6.67121 19.7563 6.5685 17.8555 6.28333C16.466 6.07429 16.1929 6.04167 15.7083 6.04167Z" fill="#008280"/>

</svg>
