<svg width="30" height="30" viewBox="0 0 30 30" fill="none" xmlns="http://www.w3.org/2000/svg">

<path d="M7.5 2.5C10.8625 2.5 13.78 4.39625 15.2462 7.17625C16.7175 5.10375 19.1375 3.75 21.875 3.75H26.25V6.875C26.25 11.3625 22.6125 15 18.125 15H16.25V16.25H22.5V25C22.5 26.3813 21.3813 27.5 20 27.5H10C8.61875 27.5 7.5 26.3813 7.5 25V16.25H13.75V13.75H11.25C6.4175 13.75 2.5 9.8325 2.5 5V2.5H7.5ZM20 18.75H10V25H20V18.75ZM23.75 6.25H21.875C18.7687 6.25 16.25 8.76875 16.25 11.875V12.5H18.125C21.2313 12.5 23.75 9.98125 23.75 6.875V6.25ZM7.5 5H5C5 8.45125 7.79875 11.25 11.25 11.25H13.75C13.75 7.79875 10.9513 5 7.5 5Z" fill="#008280"/>

</svg>
