<svg width="90" height="16" viewBox="0 0 90 16" fill="none" xmlns="http://www.w3.org/2000/svg">
<path d="M8.68707 0L10.7378 6.11146H17.3741L12.0052 9.88854L14.056 16L8.68707 12.2229L3.31816 16L5.3689 9.88854L0 6.11146H6.63633L8.68707 0Z" fill="#F88E08"/>
<path d="M26.5082 0L28.5589 6.11146H35.1953L29.8264 9.88854L31.8771 16L26.5082 12.2229L21.1393 16L23.19 9.88854L17.8211 6.11146H24.4575L26.5082 0Z" fill="#F88E08"/>
<path d="M44.7764 0L46.8272 6.11146H53.4635L48.0946 9.88854L50.1453 16L44.7764 12.2229L39.4075 16L41.4583 9.88854L36.0894 6.11146H42.7257L44.7764 0Z" fill="#F88E08"/>
<path d="M63.0447 0L65.0954 6.11146H71.7318L66.3629 9.88854L68.4136 16L63.0447 12.2229L57.6758 16L59.7265 9.88854L54.3576 6.11146H60.9939L63.0447 0Z" fill="#F88E08"/>
<path d="M81.3129 0L83.3637 6.11146H90L84.6311 9.88854L86.6818 16L81.3129 12.2229L75.944 16L77.9948 9.88854L72.6259 6.11146H79.2622L81.3129 0Z" fill="#F88E08"/>
</svg>
