<svg width="46" height="46" viewBox="0 0 46 46" fill="none" xmlns="http://www.w3.org/2000/svg">

<path d="M39.3655 5.08704C40.7744 3.67859 42.1148 2.32485 43.4553 0.984777C43.6605 0.779664 43.8657 0.560877 44.0708 0.369438C44.5906 -0.109159 45.2335 -0.122833 45.6712 0.314741C46.1226 0.779664 46.1226 1.40868 45.6165 1.91462C44.2076 3.33674 42.7851 4.74518 41.3762 6.1673C41.2394 6.30404 41.1163 6.44078 40.9385 6.63222C41.3762 7.05612 41.7866 7.45267 42.2106 7.84922C43.3048 8.87479 43.7973 10.0918 43.5647 11.6233C43.1133 14.5769 42.7577 17.5442 42.3063 20.4979C42.0054 22.4806 40.8838 24.0531 39.557 25.5026C39.2971 25.7898 39.0646 26.159 38.9415 26.5419C37.136 31.8885 35.3578 37.2487 33.5659 42.609C32.7589 45.0294 30.2968 46.2053 27.8758 45.3302C26.3712 44.7832 24.8665 44.2363 23.3756 43.6346C22.9242 43.4568 22.6507 43.5252 22.3771 43.8944C22.1583 44.1816 21.8847 44.414 21.6522 44.6875C20.1612 46.3968 17.0836 46.4515 15.4559 44.7969C10.7643 39.9836 6.00422 35.225 1.20315 30.5347C-0.465594 28.8938 -0.369846 25.8308 1.31258 24.2856C4.69111 21.1952 8.02861 18.0502 11.3798 14.9325C14.2796 12.225 17.2341 9.57217 20.0655 6.80999C22.1446 4.79988 24.5246 3.63757 27.4107 3.37776C29.777 3.17265 32.116 2.7761 34.4687 2.42057C35.7818 2.22913 36.9034 2.58466 37.8472 3.50083C38.367 3.9931 38.8457 4.54007 39.3655 5.08704ZM37.8609 6.56385C37.3411 6.04423 36.8214 5.57931 36.3426 5.07336C35.9459 4.63579 35.4809 4.51272 34.9201 4.58109C32.1844 4.96397 29.4488 5.37419 26.6994 5.6887C24.9623 5.89381 23.5261 6.5912 22.254 7.78085C15.7979 13.8248 9.30069 19.8552 2.83087 25.8855C1.91442 26.7333 1.91442 28.087 2.80351 28.9759C7.52251 33.7071 12.2689 38.4111 16.9605 43.1833C17.8222 44.0585 19.4636 43.8807 20.1612 43.1013C22.5139 40.5032 24.9213 37.9598 27.315 35.4027C31.0354 31.3962 34.7696 27.3897 38.4901 23.3968C39.4202 22.3986 40.0084 21.2226 40.1999 19.8552C40.364 18.5835 40.5692 17.3254 40.7333 16.0537C40.9659 14.3581 41.1984 12.6762 41.4036 10.9806C41.4446 10.6935 41.4446 10.2969 41.2805 10.1055C40.706 9.42176 40.0631 8.79274 39.4202 8.12271C38.6679 8.87479 37.9977 9.58585 37.3001 10.2559C37.0265 10.5157 36.9445 10.7208 37.0676 11.131C37.4506 12.348 37.177 13.4693 36.2605 14.3855C35.3715 15.2743 34.2772 15.5751 33.0598 15.2333C31.268 14.7273 30.2695 12.8677 30.8029 11.131C31.35 9.36706 33.1966 8.40987 34.9748 8.95683C35.1389 9.01153 35.4125 9.03888 35.5219 8.94316C36.2879 8.16373 37.0402 7.3843 37.8609 6.56385ZM24.4425 41.6929C25.8377 42.2125 27.2055 42.6501 28.5186 43.238C29.8454 43.826 31.1996 42.9099 31.5552 41.7749C32.6905 38.2059 33.9079 34.6507 35.0979 31.0954C35.221 30.7398 35.3304 30.3706 35.4398 30.0151C35.4125 30.0014 35.3851 29.9877 35.3578 29.9741C31.733 33.8712 28.1083 37.7684 24.4425 41.6929ZM33.9079 10.9806C33.2924 10.9943 32.841 11.4455 32.841 12.0609C32.841 12.7036 33.306 13.1548 33.9352 13.1548C34.5371 13.1411 35.0021 12.6762 35.0158 12.0746C35.0295 11.4592 34.5371 10.9669 33.9079 10.9806Z" fill="#D53A42"/>
<path d="M10.8086 27.4565C10.9043 26.5403 11.7934 26.0207 12.5457 26.4583C12.6552 26.5267 12.7646 26.6224 12.8603 26.7181C15.0078 28.8649 17.169 31.0118 19.3028 33.1586C19.9046 33.7603 19.8362 34.5261 19.166 34.9363C18.701 35.2371 18.2222 35.1551 17.7435 34.6901C16.5808 33.5415 15.4182 32.3792 14.2692 31.2169C13.2844 30.246 12.2995 29.2752 11.342 28.2769C11.1232 28.0445 10.9864 27.73 10.8086 27.4565Z" fill="#D53A42"/>
<path d="M14.0469 24.0804C14.2931 23.7386 14.4572 23.3967 14.7308 23.1779C15.0591 22.9044 15.4694 22.9454 15.8387 23.1642C15.9618 23.2463 16.0849 23.3557 16.1944 23.4514C18.3145 25.5572 20.4209 27.6767 22.5411 29.7962C23.1019 30.3569 23.1429 30.9722 22.6505 31.4645C22.1581 31.9431 21.5562 31.902 20.9954 31.3414C18.8753 29.2356 16.7688 27.1161 14.6624 24.9966C14.4162 24.7641 14.2794 24.4496 14.0469 24.0804Z" fill="#D53A42"/>

</svg>
