<svg width="46" height="47" viewBox="0 0 46 47" fill="none" xmlns="http://www.w3.org/2000/svg">

<path d="M18.6236 23.5C17.1436 23.5 15.6969 23.9279 14.4663 24.7296C13.2357 25.5313 12.2766 26.6708 11.7102 28.0039C11.1439 29.3371 10.9957 30.804 11.2844 32.2193C11.5731 33.6346 12.2858 34.9346 13.3323 35.9549C14.3789 36.9753 15.7122 37.6702 17.1638 37.9517C18.6153 38.2332 20.1199 38.0887 21.4872 37.5365C22.8546 36.9843 24.0233 36.0492 24.8455 34.8493C25.6677 33.6495 26.1066 32.239 26.1066 30.796V8.9082C26.1066 11.327 27.0921 13.6466 28.8463 15.3569C30.6004 17.0673 32.9796 18.0281 35.4604 18.0281" stroke="white" stroke-linecap="round" stroke-linejoin="round"/>

</svg>
