<svg width="62" height="43" viewBox="0 0 62 43" fill="none" xmlns="http://www.w3.org/2000/svg">
<path d="M61 35.4558C60.5937 36.4965 59.828 36.8908 58.7342 36.8277C58.0935 36.7804 57.3434 36.6227 56.8277 36.8908C56.3746 37.1273 56.2183 37.9 55.9058 38.4204C54.2806 40.9908 51.9366 42.2523 48.9364 41.9527C46.0924 41.6688 44.0922 40.0919 42.9671 37.4585C42.7639 36.9854 42.5608 36.8119 42.0451 36.8119C36.904 36.8277 31.7785 36.8277 26.6374 36.8119C26.1374 36.8119 25.903 36.9223 25.6998 37.4269C24.6216 40.2181 21.9651 42 18.9961 42C16.0114 42 13.3237 40.1865 12.2611 37.3796C12.0736 36.8908 11.8392 36.7804 11.3704 36.7962C10.4484 36.8277 9.54206 36.8119 8.6201 36.8119C7.1981 36.8119 6.54178 36.1338 6.54178 34.7146C6.54178 29.6527 6.54178 24.5908 6.54178 19.5131C6.54178 19.2765 6.54178 19.0558 6.54178 18.7562C5.33855 18.7562 4.18219 18.7877 3.04146 18.7404C2.63517 18.7246 2.182 18.63 1.82259 18.4408C1.15066 18.0781 0.869379 17.2423 1.0569 16.5327C1.26004 15.76 1.86947 15.2238 2.6508 15.2081C3.69777 15.1765 4.76037 15.1923 5.80734 15.1923C6.02611 15.1923 6.22925 15.1923 6.47928 15.1923C6.47928 14.0096 6.47928 12.8742 6.47928 11.6442C6.10424 11.6442 5.72921 11.66 5.35417 11.6442C4.22907 11.6127 3.43212 10.8558 3.44774 9.83077C3.46337 8.82154 4.24469 8.11192 5.35417 8.09615C5.71358 8.09615 6.08862 8.09615 6.52616 8.09615C6.52616 7.81231 6.52616 7.60731 6.52616 7.40231C6.52616 5.95154 6.52616 4.485 6.52616 3.03423C6.54178 1.69385 7.22935 1 8.51072 1C19.2461 1 29.9971 1 40.7325 1C42.0295 1 42.7014 1.69385 42.717 3.01846C42.717 5.24192 42.717 7.46538 42.717 9.70462C42.717 9.92539 42.717 10.1304 42.717 10.3827C42.9671 10.3985 43.1858 10.4142 43.389 10.4142C45.2173 10.4142 47.0612 10.43 48.8895 10.4142C49.5771 10.4142 50.124 10.6508 50.6084 11.1554C53.8118 14.5142 57.0465 17.8731 60.2499 21.2319C60.5468 21.5473 60.75 21.9731 61 22.3358C61 26.7038 61 31.0877 61 35.4558ZM10.089 8.09615C10.3546 8.09615 10.5578 8.09615 10.7609 8.09615C13.1205 8.09615 15.4801 8.09615 17.8553 8.09615C18.7773 8.09615 19.6993 8.08038 20.6056 8.11192C21.5119 8.14346 22.1839 8.83731 22.2464 9.73615C22.3089 10.6665 21.7151 11.4235 20.8087 11.5969C20.5587 11.6442 20.3087 11.6442 20.0587 11.6442C16.9803 11.6442 13.8862 11.6442 10.8078 11.6442C10.589 11.6442 10.3546 11.66 10.1202 11.6758C10.1202 12.8742 10.1202 13.9938 10.1202 15.1923C10.6515 15.1923 11.136 15.1923 11.6204 15.1923C14.1206 15.1923 16.6209 15.1765 19.1211 15.1923C20.3868 15.1923 21.215 16.2015 20.9494 17.3685C20.7619 18.22 20.043 18.7404 19.0117 18.7404C16.2771 18.7404 13.5424 18.7404 10.8078 18.7404C10.589 18.7404 10.3546 18.7562 10.1202 18.7719C10.1202 23.6131 10.1202 28.3912 10.1202 33.2481C10.4484 33.2481 10.7297 33.2481 11.0266 33.2481C11.3079 33.2481 11.6048 33.2481 11.886 33.2481C11.9485 33.0588 11.9954 32.9327 12.0267 32.7908C12.8861 29.5423 15.6833 27.3819 18.9648 27.3662C22.262 27.3504 25.0748 29.495 25.9811 32.7435C26.1061 33.1692 26.278 33.2796 26.6999 33.2796C30.669 33.2638 34.6225 33.2638 38.5917 33.2638C38.7635 33.2638 38.9354 33.2323 39.1542 33.2165C39.1542 23.6446 39.1542 14.12 39.1542 4.57962C29.4658 4.57962 19.793 4.57962 10.089 4.57962C10.089 5.74654 10.089 6.86615 10.089 8.09615ZM42.7014 32.2546C44.3109 28.4069 47.5612 27.2085 49.9365 27.3662C53.6399 27.6185 55.8276 29.7158 56.8434 33.2165C57.0465 33.2165 57.2496 33.2165 57.4528 33.2165C57.4528 30.2835 57.4528 27.3977 57.4528 24.4962C52.5305 24.4962 47.6394 24.4962 42.7014 24.4962C42.7014 27.1138 42.7014 29.6842 42.7014 32.2546ZM42.7014 20.8692C46.8112 20.8692 50.8741 20.8692 55.0307 20.8692C52.843 18.5827 50.7334 16.375 48.6082 14.1831C48.4676 14.0412 48.2019 13.9781 47.9832 13.9781C46.7799 13.9623 45.5611 13.9623 44.3578 13.9623C43.8109 13.9623 43.2796 13.9623 42.7014 13.9623C42.7014 16.3119 42.7014 18.5827 42.7014 20.8692ZM18.9804 38.4519C21.0588 38.4677 22.7464 36.7646 22.7464 34.6673C22.7308 32.5858 21.09 30.9142 19.0273 30.9142C16.9646 30.8985 15.2926 32.5542 15.277 34.6358C15.2457 36.7488 16.8865 38.4362 18.9804 38.4519ZM53.4055 34.6988C53.4055 32.6015 51.7804 30.9458 49.7177 30.9142C47.6394 30.8985 45.9361 32.57 45.9361 34.6673C45.9205 36.7331 47.5769 38.4204 49.6396 38.4519C51.7335 38.4677 53.4055 36.8119 53.4055 34.6988Z" fill="#7E89C7" stroke="white"/>
</svg>
