<svg width="62" height="61" viewBox="0 0 62 61" fill="none" xmlns="http://www.w3.org/2000/svg">
<path d="M0.03125 19.4394C0.40625 18.6912 1.01562 18.5002 1.79688 18.5002C4.45312 18.5161 7.125 18.5002 9.78125 18.5161C10.2031 18.5161 10.4062 18.3888 10.5781 17.9908C12.125 14.5363 14.6094 12.0369 18.0312 10.5246C18.4219 10.3495 18.5469 10.1266 18.5312 9.71272C18.5156 7.07011 18.5156 4.41158 18.5312 1.76897C18.5312 1.48242 18.5469 1.19587 18.6094 0.925244C18.7344 0.336228 19.25 -0.029917 19.8438 0.00192168C20.4375 0.017841 20.9062 0.431744 21 1.03668C21.0312 1.27547 21.0312 1.51426 21.0312 1.76897C21.0312 4.10911 21.0312 6.46517 21.0312 8.80532C21.0312 9.02819 21.0312 9.23514 21.0312 9.52169C21.2969 9.50577 21.4844 9.50577 21.6719 9.47393C24.6094 8.99635 27.4531 9.3625 30.2188 10.3973C30.7344 10.5883 31.1094 10.5564 31.5625 10.2221C34.625 7.97751 37.8281 5.95576 41.3125 4.44342C43.0781 3.67929 44.875 3.07435 46.8125 3.04252C50.0625 2.97884 51.9063 4.90508 51.7656 8.20038C51.6719 10.1425 51.0938 11.9733 50.3438 13.7403C48.7031 17.6565 46.4219 21.1906 43.8594 24.5177C36.9844 33.4644 29.0781 41.3126 19.6875 47.5212C16.9844 49.3041 14.1719 50.8642 11.0312 51.7398C9.70312 52.1059 8.35938 52.3129 6.96875 52.1378C4.26563 51.8035 2.95312 49.7658 3.04688 47.1073C3.10938 45.1492 3.70312 43.3344 4.45312 41.5673C5.96875 38.0014 8.01562 34.7538 10.25 31.6337C10.5312 31.2516 10.5625 30.9332 10.3906 30.4875C9.25 27.5901 8.9375 24.5973 9.48438 21.509C9.51562 21.3816 9.5 21.2383 9.51562 21.0314C9.125 21.0314 8.78125 21.0314 8.42188 21.0314C6.15625 21.0314 3.89062 21.0155 1.625 21.0473C0.84375 21.0473 0.28125 20.7926 0 20.0285C0.03125 19.8374 0.03125 19.6464 0.03125 19.4394ZM33.4219 11.8778C34.2344 12.4827 34.9219 12.9762 35.5781 13.4856C36.3438 14.0905 36.4688 14.5044 36.1406 15.4278C34.9531 18.7867 33.5625 22.0343 31.8438 25.1386C30.4844 27.5901 28.75 29.6437 26.3594 31.1561C22.9688 33.2893 19.3594 34.9449 15.6562 36.4095C14.7031 36.7915 14.2969 36.696 13.625 35.8682C13.0469 35.1518 12.5 34.4195 11.9062 33.6713C11.3125 34.5469 10.7188 35.3906 10.1875 36.2503C8.46875 38.9884 6.8125 41.7902 5.96875 44.9741C5.70312 45.9929 5.65625 47.0754 5.65625 48.142C5.65625 48.938 6.20313 49.3837 6.96875 49.5588C8.21875 49.8454 9.42187 49.5907 10.5937 49.2245C13.8594 48.2375 16.7969 46.5342 19.5781 44.592C28.5469 38.3357 36.1719 30.6626 42.7188 21.8592C44.9219 18.8982 46.8438 15.7621 48.2188 12.3235C48.8125 10.8271 49.3125 9.2829 49.2344 7.62729C49.1719 6.29006 48.5156 5.58961 47.2031 5.63737C46.2969 5.66921 45.3438 5.73288 44.5156 6.03535C42.6563 6.7358 40.8125 7.48401 39.0625 8.40733C37.1562 9.42617 35.3438 10.6838 33.4219 11.8778ZM33.625 15.1094C30.1875 12.5941 26.5 11.3365 22.3281 11.9096C18.5156 12.4349 15.5625 14.3771 13.5469 17.7042C10.5469 22.687 11.4844 29.0866 15 33.5121C15.1094 33.6395 15.4219 33.7191 15.5781 33.6554C18.6562 32.4137 21.6875 31.0606 24.5312 29.3094C26 28.402 27.375 27.3673 28.375 25.9186C30.6875 22.6233 32.1406 18.8823 33.625 15.1094Z" fill="#7E89C7"/>
<path d="M54.8448 50.689C54.8135 51.8511 53.8292 52.4561 53.0323 52.0103C52.8135 51.883 52.6104 51.7078 52.4385 51.5168C50.0948 49.1607 47.751 46.8047 45.4229 44.4327C44.6104 43.6049 44.501 42.8726 45.0948 42.2836C45.6885 41.6946 46.3604 41.806 47.1573 42.6179C49.501 44.974 51.8448 47.33 54.1729 49.702C54.501 50.0363 54.7042 50.4661 54.8448 50.689Z" fill="#7E89C7"/>
<path d="M61.0317 30.726C61.0473 31.5538 60.3286 32.1587 59.5005 31.9518C58.7505 31.7607 58.0317 31.4901 57.2973 31.2354C55.0317 30.4713 52.7505 29.6912 50.4848 28.9112C49.7817 28.6724 49.4067 28.1948 49.4223 27.6217C49.4536 26.7302 50.2348 26.173 51.1567 26.4755C52.813 27.0168 54.4692 27.5899 56.1255 28.147C57.4223 28.5928 58.7192 29.0226 60.0161 29.4684C60.6723 29.7071 61.0161 30.1688 61.0317 30.726Z" fill="#7E89C7"/>
<path d="M35.0952 60.0023C34.4858 60.0023 34.0952 59.6839 33.8452 58.9198C33.0639 56.4682 32.2827 54.0007 31.5014 51.5491C31.3295 50.9919 31.142 50.4347 30.9858 49.8776C30.7827 49.1294 31.1108 48.4607 31.7358 48.2379C32.392 48.015 33.0795 48.3015 33.3139 49.0338C34.3295 52.1381 35.3139 55.2424 36.267 58.3785C36.5327 59.2541 35.9233 60.0023 35.0952 60.0023Z" fill="#7E89C7"/>
</svg>
