<svg width="16" height="16" viewBox="0 0 16 16" fill="none" xmlns="http://www.w3.org/2000/svg">
<path d="M15.8138 0.604062C15.7762 0.428438 15.604 0.2565 15.4287 0.217438C14.4206 0.00260313 13.6348 0 12.8489 0C9.61797 0 7.68002 1.72656 6.23047 4H2.97007C2.45756 4 1.85489 4.37187 1.62791 4.82812L0.0782664 7.9125C0.0313047 8.01875 0.00391347 8.13125 0 8.25C0 8.66406 0.336559 9 0.72321 9H3.97609L3.30006 9.70312C2.94377 10.0588 2.92123 10.7109 3.30006 11.1172L4.89268 12.7069C5.24083 13.0547 5.89829 13.1172 6.30936 12.7069L7.01379 12.0037L6.98498 15.25C6.98498 15.6641 7.32154 16 7.70819 16C7.8256 15.9961 7.93712 15.9688 8.04288 15.9219L11.1333 14.3787C11.591 14.1483 11.9639 13.5506 11.9639 13.0387L11.9659 9.77312C14.2357 8.32781 15.9451 6.38562 15.9451 3.17937C16.0329 2.39062 16.0329 1.60812 15.8138 0.604062ZM11.9942 5.25C11.3336 5.25 10.7701 4.69125 10.7701 4C10.7701 3.30875 11.3055 2.75 11.9942 2.75C12.6868 2.75 13.2184 3.30875 13.2184 4C13.2184 4.69125 12.7143 5.25 11.9942 5.25Z" fill="#04234D"/>
</svg>
